<svg width="10" height="10" viewBox="0 0 10 10" fill="none" xmlns="http://www.w3.org/2000/svg">
<path d="M10 3.33406C10 3.38607 9.98012 3.43595 9.94473 3.47273C9.90933 3.50951 9.86133 3.53018 9.81128 3.53018H8.86769V4.51078C8.86769 4.5628 8.84781 4.61268 8.81241 4.64946C8.77702 4.68624 8.72902 4.7069 8.67897 4.7069C8.62892 4.7069 8.58092 4.68624 8.54553 4.64946C8.51013 4.61268 8.49025 4.5628 8.49025 4.51078V3.53018H7.54666C7.49661 3.53018 7.44861 3.50951 7.41321 3.47273C7.37782 3.43595 7.35794 3.38607 7.35794 3.33406C7.35794 3.28204 7.37782 3.23216 7.41321 3.19538C7.44861 3.1586 7.49661 3.13793 7.54666 3.13793H8.49025V2.15733C8.49025 2.10532 8.51013 2.05543 8.54553 2.01865C8.58092 1.98187 8.62892 1.96121 8.67897 1.96121C8.72902 1.96121 8.77702 1.98187 8.81241 2.01865C8.84781 2.05543 8.86769 2.10532 8.86769 2.15733V3.13793H9.81128C9.86133 3.13793 9.90933 3.1586 9.94473 3.19538C9.98012 3.23216 10 3.28204 10 3.33406ZM5.65947 1.17673H6.22563V1.76509C6.22563 1.8171 6.24551 1.86699 6.2809 1.90377C6.31629 1.94055 6.3643 1.96121 6.41435 1.96121C6.4644 1.96121 6.5124 1.94055 6.54779 1.90377C6.58318 1.86699 6.60307 1.8171 6.60307 1.76509V1.17673H7.16922C7.21927 1.17673 7.26727 1.15606 7.30267 1.11928C7.33806 1.0825 7.35794 1.03262 7.35794 0.980605C7.35794 0.92859 7.33806 0.878706 7.30267 0.841926C7.26727 0.805146 7.21927 0.784484 7.16922 0.784484H6.60307V0.196121C6.60307 0.144106 6.58318 0.0942223 6.54779 0.0574425C6.5124 0.0206627 6.4644 0 6.41435 0C6.3643 0 6.31629 0.0206627 6.2809 0.0574425C6.24551 0.0942223 6.22563 0.144106 6.22563 0.196121V0.784484H5.65947C5.60942 0.784484 5.56142 0.805146 5.52603 0.841926C5.49064 0.878706 5.47075 0.92859 5.47075 0.980605C5.47075 1.03262 5.49064 1.0825 5.52603 1.11928C5.56142 1.15606 5.60942 1.17673 5.65947 1.17673ZM8.89128 6.44257C8.90067 6.48119 8.90067 6.52163 8.89128 6.56024C8.67836 7.35183 8.26968 8.07168 7.70592 8.64816C7.14216 9.22464 6.44297 9.63766 5.67792 9.84611C4.91286 10.0546 4.10862 10.0512 3.34521 9.83632C2.5818 9.62145 1.88584 9.20258 1.32659 8.62138C0.767326 8.04018 0.364264 7.31693 0.157503 6.52357C-0.0492566 5.73022 -0.0525057 4.89443 0.148079 4.09937C0.348664 3.30431 0.74609 2.57769 1.30081 1.99182C1.85553 1.40594 2.54821 0.981242 3.30993 0.759969C3.35015 0.746962 3.39345 0.748693 3.43259 0.764871C3.46972 0.780352 3.50115 0.807691 3.52235 0.842941C3.54355 0.878192 3.55342 0.919531 3.55054 0.960992C3.55128 0.97587 3.54969 0.990774 3.54582 1.00512C3.35006 1.74047 3.34544 2.51662 3.53242 3.25443C3.7194 3.99225 4.09129 4.66534 4.6102 5.20509C5.1291 5.74485 5.77644 6.13195 6.48624 6.32695C7.19603 6.52194 7.94289 6.51785 8.65066 6.31509L8.70728 6.30529C8.74777 6.30589 8.78712 6.31937 8.82001 6.34391C8.85291 6.36846 8.87778 6.40289 8.89128 6.44257ZM8.42892 6.77598C7.69845 6.92591 6.94369 6.88659 6.23131 6.66147C5.51893 6.43635 4.87087 6.03238 4.34437 5.48523C3.81787 4.93807 3.42914 4.26459 3.21252 3.52427C2.9959 2.78395 2.95806 1.99959 3.10234 1.24046C2.44752 1.48975 1.86368 1.90643 1.40469 2.45205C0.945705 2.99767 0.626361 3.65465 0.476132 4.36236C0.325902 5.07007 0.349629 5.8057 0.545121 6.50136C0.740614 7.19702 1.10157 7.83031 1.59469 8.34276C2.0878 8.85522 2.69718 9.23034 3.36659 9.4335C4.036 9.63666 4.74386 9.66131 5.42485 9.50519C6.10585 9.34907 6.73803 9.0172 7.26306 8.54021C7.78809 8.06322 8.18904 7.45648 8.42892 6.77598Z" fill="#4D74FE"/>
</svg>
