<svg width="10" height="10" viewBox="0 0 10 10" fill="none" xmlns="http://www.w3.org/2000/svg">
<path d="M5 1.88679C4.38427 1.88679 3.78236 2.06938 3.27039 2.41146C2.75843 2.75355 2.3594 3.23976 2.12377 3.80863C1.88814 4.37749 1.82649 5.00345 1.94661 5.60736C2.06674 6.21126 2.36324 6.76598 2.79863 7.20137C3.23402 7.63676 3.78874 7.93326 4.39264 8.05339C4.99655 8.17351 5.62251 8.11186 6.19137 7.87623C6.76024 7.6406 7.24645 7.24157 7.58854 6.72961C7.93062 6.21764 8.11321 5.61573 8.11321 5C8.11196 4.17471 7.78356 3.38358 7.19999 2.80001C6.61642 2.21644 5.82529 1.88804 5 1.88679ZM5 7.54717C4.49622 7.54717 4.00375 7.39778 3.58487 7.11789C3.16599 6.83801 2.83951 6.44019 2.64672 5.97476C2.45393 5.50933 2.40349 4.99717 2.50177 4.50307C2.60006 4.00897 2.84265 3.55511 3.19888 3.19888C3.55511 2.84265 4.00897 2.60006 4.50307 2.50177C4.99717 2.40349 5.50933 2.45393 5.97476 2.64672C6.44019 2.83951 6.83801 3.16599 7.11789 3.58487C7.39778 4.00375 7.54717 4.49622 7.54717 5C7.54717 5.67555 7.27881 6.32343 6.80112 6.80112C6.32343 7.27881 5.67555 7.54717 5 7.54717ZM4.71698 0.660377V0.283019C4.71698 0.207958 4.7468 0.135971 4.79988 0.0828943C4.85295 0.0298179 4.92494 0 5 0C5.07506 0 5.14705 0.0298179 5.20012 0.0828943C5.2532 0.135971 5.28302 0.207958 5.28302 0.283019V0.660377C5.28302 0.735439 5.2532 0.807426 5.20012 0.860502C5.14705 0.913578 5.07506 0.943396 5 0.943396C4.92494 0.943396 4.85295 0.913578 4.79988 0.860502C4.7468 0.807426 4.71698 0.735439 4.71698 0.660377ZM1.46226 1.86321C1.4091 1.81004 1.37923 1.73793 1.37923 1.66274C1.37923 1.58754 1.4091 1.51543 1.46226 1.46226C1.51543 1.4091 1.58754 1.37923 1.66274 1.37923C1.73793 1.37923 1.81004 1.4091 1.86321 1.46226L2.13208 1.73113C2.18423 1.78483 2.21341 1.85674 2.21341 1.9316C2.21341 2.00646 2.18423 2.07838 2.13208 2.13208C2.10541 2.15841 2.0737 2.17909 2.03884 2.19287C2.00399 2.20665 1.96671 2.21324 1.92925 2.21226C1.89253 2.21288 1.85607 2.20609 1.82203 2.19232C1.788 2.17854 1.75708 2.15805 1.73113 2.13208L1.46226 1.86321ZM0.943396 5C0.943396 5.07506 0.913578 5.14705 0.860502 5.20012C0.807426 5.2532 0.735439 5.28302 0.660377 5.28302H0.283019C0.207958 5.28302 0.135971 5.2532 0.0828943 5.20012C0.0298179 5.14705 0 5.07506 0 5C0 4.92494 0.0298179 4.85295 0.0828943 4.79988C0.135971 4.7468 0.207958 4.71698 0.283019 4.71698H0.660377C0.735439 4.71698 0.807426 4.7468 0.860502 4.79988C0.913578 4.85295 0.943396 4.92494 0.943396 5ZM2.13208 7.86792C2.18423 7.92162 2.21341 7.99354 2.21341 8.0684C2.21341 8.14326 2.18423 8.21517 2.13208 8.26887L1.86321 8.53774C1.80991 8.58891 1.73898 8.61762 1.66509 8.61792C1.58994 8.61696 1.51776 8.58842 1.46226 8.53774C1.41011 8.48404 1.38093 8.41212 1.38093 8.33726C1.38093 8.2624 1.41011 8.19049 1.46226 8.13679L1.73113 7.86792C1.78483 7.81577 1.85674 7.78659 1.9316 7.78659C2.00646 7.78659 2.07838 7.81577 2.13208 7.86792ZM5.28302 9.33962V9.71698C5.28302 9.79204 5.2532 9.86403 5.20012 9.91711C5.14705 9.97018 5.07506 10 5 10C4.92494 10 4.85295 9.97018 4.79988 9.91711C4.7468 9.86403 4.71698 9.79204 4.71698 9.71698V9.33962C4.71698 9.26456 4.7468 9.19257 4.79988 9.1395C4.85295 9.08642 4.92494 9.0566 5 9.0566C5.07506 9.0566 5.14705 9.08642 5.20012 9.1395C5.2532 9.19257 5.28302 9.26456 5.28302 9.33962ZM8.53774 8.13679C8.58989 8.19049 8.61907 8.2624 8.61907 8.33726C8.61907 8.41212 8.58989 8.48404 8.53774 8.53774C8.48224 8.58842 8.41006 8.61696 8.33491 8.61792C8.26102 8.61762 8.19009 8.58891 8.13679 8.53774L7.86792 8.26887C7.81476 8.2157 7.78489 8.14359 7.78489 8.0684C7.78489 7.99321 7.81476 7.92109 7.86792 7.86792C7.92109 7.81476 7.99321 7.78489 8.0684 7.78489C8.14359 7.78489 8.2157 7.81476 8.26887 7.86792L8.53774 8.13679ZM10 5C10 5.07506 9.97018 5.14705 9.91711 5.20012C9.86403 5.2532 9.79204 5.28302 9.71698 5.28302H9.33962C9.26456 5.28302 9.19257 5.2532 9.1395 5.20012C9.08642 5.14705 9.0566 5.07506 9.0566 5C9.0566 4.92494 9.08642 4.85295 9.1395 4.79988C9.19257 4.7468 9.26456 4.71698 9.33962 4.71698H9.71698C9.79204 4.71698 9.86403 4.7468 9.91711 4.79988C9.97018 4.85295 10 4.92494 10 5ZM8.53774 1.46226C8.58989 1.51596 8.61907 1.58788 8.61907 1.66274C8.61907 1.7376 8.58989 1.80951 8.53774 1.86321L8.26887 2.13208C8.24292 2.15805 8.212 2.17854 8.17797 2.19232C8.14393 2.20609 8.10747 2.21288 8.07076 2.21226C8.03329 2.21324 7.99601 2.20665 7.96116 2.19287C7.9263 2.17909 7.89459 2.15841 7.86792 2.13208C7.81577 2.07838 7.78659 2.00646 7.78659 1.9316C7.78659 1.85674 7.81577 1.78483 7.86792 1.73113L8.13679 1.46226C8.19049 1.41011 8.2624 1.38093 8.33726 1.38093C8.41212 1.38093 8.48404 1.41011 8.53774 1.46226Z" fill="#F89235"/>
</svg>
