<svg width="124" height="65" viewBox="0 0 124 65" fill="none" xmlns="http://www.w3.org/2000/svg">
<path d="M15.9796 3.75769C14.9589 7.6364 15.5998 10.91 15.8906 12.0355C16.0271 11.9992 16.1577 11.9629 16.2882 11.9145C16.0212 10.8495 15.4158 7.75137 16.3179 4.09655C16.1992 3.99973 16.0864 3.88476 15.9796 3.75769Z" fill="#191924"/>
<path d="M19.469 3.75769C19.3681 3.88476 19.2554 3.99973 19.1248 4.09655C20.0269 7.75137 19.4215 10.8434 19.1545 11.9145C19.285 11.9568 19.4156 11.9992 19.5521 12.0355C19.8429 10.91 20.4898 7.6364 19.469 3.75769Z" fill="#191924"/>
<path d="M17.7242 0C16.478 0 15.4691 1.02868 15.4691 2.29939C15.4691 2.85003 15.659 3.35832 15.9795 3.75769C16.0804 3.88476 16.1931 3.99973 16.3237 4.09654C16.7094 4.4112 17.1961 4.59273 17.7242 4.59273C18.2524 4.59273 18.739 4.40515 19.1248 4.09654C19.2494 3.99368 19.3622 3.87871 19.469 3.75769C19.7894 3.35832 19.9793 2.85003 19.9793 2.29939C19.9793 1.03473 18.9705 0 17.7242 0ZM19.2138 3.40068C19.1129 3.5459 18.9883 3.67297 18.8518 3.78189C18.5432 4.02998 18.1515 4.17521 17.7242 4.17521C17.2969 4.17521 16.9112 4.02998 16.5967 3.78189C16.4602 3.67297 16.3356 3.53985 16.2347 3.40068C16.0151 3.09207 15.8845 2.71086 15.8845 2.29939C15.8845 1.26467 16.7094 0.423572 17.7242 0.423572C18.739 0.423572 19.5639 1.26467 19.5639 2.29939C19.5639 2.71086 19.4334 3.09207 19.2138 3.40068Z" fill="#191924"/>
<path d="M17.606 61.732C17.4517 61.732 17.327 61.5444 17.327 61.3145L16.9888 17.9468C16.9888 17.7169 17.1134 17.5293 17.2677 17.5293H18.1994C18.3537 17.5293 18.4783 17.7169 18.4783 17.9468L18.1401 61.3145C18.1401 61.5444 18.0154 61.732 17.8611 61.732H17.606Z" fill="#191924"/>
<path d="M26.181 13.0156L26.8634 14.9217L26.7151 15.3271H27.1602L27.2551 15.0669C27.2907 14.9761 27.2907 14.8733 27.2551 14.7765L26.5726 12.8704C26.537 12.7615 26.4539 12.6768 26.3531 12.6283C26.2997 12.6041 26.2403 12.592 26.181 12.592C26.1275 12.592 26.0801 12.6041 26.0326 12.6223C26.0267 12.6223 25.8071 12.7131 25.4273 12.822L25.5756 13.2213C25.9554 13.1064 26.181 13.0156 26.181 13.0156Z" fill="#191924"/>
<path d="M8.58509 14.9224L9.26756 13.0163C9.26756 13.0163 9.49307 13.1071 9.87881 13.216L10.0272 12.8166C9.64736 12.7077 9.42779 12.623 9.42185 12.6169C9.37438 12.5988 9.32097 12.5867 9.27349 12.5867C9.21415 12.5867 9.1548 12.5988 9.10139 12.623C9.0005 12.6714 8.92335 12.7561 8.88181 12.865L8.19934 14.7711C8.16374 14.8619 8.16374 14.9647 8.19934 15.0615L8.2943 15.3217H8.73938L8.58509 14.9224Z" fill="#191924"/>
<path d="M17.7243 12.5317C20.3295 14.2502 23.5579 13.748 25.1661 13.3305L25.0178 12.9311C24.2997 13.1126 23.2552 13.3123 22.098 13.3123C20.4838 13.3123 19.0833 12.9311 17.9438 12.1747C17.8726 12.1263 17.7955 12.1082 17.7183 12.1082C17.6412 12.1082 17.564 12.1324 17.4928 12.1747C16.3534 12.9311 14.9528 13.3123 13.3387 13.3123C12.1874 13.3123 11.1429 13.1126 10.4189 12.9311L10.2705 13.3305C11.8906 13.748 15.119 14.2502 17.7243 12.5317Z" fill="#191924"/>
<path d="M14.1044 12.253C12.3478 12.253 10.8939 11.7023 10.882 11.6963C10.8345 11.6781 10.787 11.666 10.7336 11.666C10.6743 11.666 10.6149 11.6781 10.5615 11.7023C10.4606 11.7507 10.3835 11.8354 10.3419 11.9383L10.0215 12.8157C10.1402 12.852 10.2767 12.8883 10.425 12.9246L10.7336 12.0835C10.7336 12.0835 13.4042 13.1122 16.0094 12.4345C15.9975 12.3982 15.9501 12.259 15.8967 12.0291C15.3388 12.1804 14.7454 12.253 14.1044 12.253Z" fill="#191924"/>
<path d="M25.1069 11.9451C25.0654 11.8423 24.9882 11.7515 24.8873 11.7092C24.8339 11.685 24.7746 11.6729 24.7152 11.6729C24.6678 11.6729 24.6143 11.685 24.5669 11.7031C24.555 11.7092 23.107 12.2598 21.3444 12.2598C20.7035 12.2598 20.1041 12.1872 19.5522 12.042C19.4929 12.2719 19.4513 12.4111 19.4395 12.4474C22.0506 13.1251 24.7152 12.0964 24.7152 12.0964L25.0238 12.9375C25.1722 12.9012 25.3087 12.8649 25.4274 12.8286L25.1069 11.9451Z" fill="#191924"/>
<path d="M17.9499 11.339C17.8846 11.2967 17.8075 11.2725 17.7244 11.2725C17.6472 11.2725 17.5701 11.2967 17.4989 11.339C17.0182 11.6476 16.4781 11.8836 15.8906 12.0349C15.95 12.2648 15.9915 12.404 16.0034 12.4403C16.5909 12.289 17.1725 12.053 17.7185 11.696C18.2644 12.053 18.846 12.289 19.4335 12.4403C19.4454 12.404 19.4929 12.2648 19.5463 12.0349C18.9647 11.8836 18.4306 11.6537 17.9499 11.339Z" fill="#191924"/>
<path d="M25.1659 13.3306C25.3143 13.2942 25.4508 13.2519 25.5695 13.2216L25.4211 12.8223C25.3024 12.8586 25.1659 12.8949 25.0176 12.9312L25.1659 13.3306Z" fill="#191924"/>
<path d="M10.2825 13.3306L10.4308 12.9312C10.2825 12.8949 10.146 12.8586 10.0273 12.8223L9.87891 13.2216C9.9976 13.2519 10.1282 13.2942 10.2825 13.3306Z" fill="#191924"/>
<path d="M25.1604 15.8776L24.9587 15.333H10.4903L10.2885 15.8776H25.1604Z" fill="#191924"/>
<path d="M10.0451 15.333H8.73361L8.92352 15.8776H9.84337L10.0451 15.333Z" fill="#191924"/>
<path d="M35.4448 23.3262V23.1689C35.4448 23.0781 35.3736 22.9995 35.2846 22.9934L35.1303 22.9753C32.4004 22.6667 30.3649 21.3536 29.083 19.0602C28.1217 17.3478 27.9555 15.6838 27.9555 15.6656L27.9377 15.5022C27.9317 15.4115 27.8546 15.3389 27.7596 15.3389H27.1603L26.9644 15.8835H27.4392C27.5045 16.3615 27.7596 17.8016 28.6083 19.3204C29.54 20.9845 31.3856 23.0539 34.9107 23.5017C35.1244 38.4175 30.448 46.3564 26.4778 50.3985C22.3592 54.5919 18.1279 55.56 17.7244 55.6447C17.3208 55.56 13.1073 54.5979 8.98878 50.4167C5.01266 46.3806 0.324392 38.4296 0.538035 23.5017C4.06314 23.0539 5.90877 20.9905 6.84049 19.3204C7.68912 17.7956 7.94431 16.3615 8.00959 15.8835H8.48435L8.28851 15.3389H7.68912C7.59417 15.3389 7.52296 15.4115 7.51109 15.5022L7.49922 15.6656C7.49922 15.6838 7.33899 17.3357 6.3776 19.0481C5.08981 21.3475 3.05427 22.6667 0.324392 22.9753L0.170096 22.9934C0.0810782 23.0055 0.0157979 23.0781 0.00986336 23.1689V23.3262C-0.102892 30.0368 0.751678 35.9366 2.5439 40.8621C3.98005 44.8195 6.02746 48.1596 8.62084 50.7918C10.9353 53.1396 13.2616 54.4769 14.8105 55.1849C16.4959 55.9594 17.6294 56.1712 17.6769 56.1772L17.7066 56.1833C17.7185 56.1833 17.7303 56.1833 17.7363 56.1833C17.7481 56.1833 17.76 56.1833 17.7659 56.1833L17.7956 56.1772C17.8431 56.1712 18.9706 55.9594 20.662 55.1849C22.2109 54.4769 24.5372 53.1396 26.8517 50.7918C29.445 48.1596 31.4865 44.8195 32.9227 40.8621C34.703 35.9366 35.5576 30.0368 35.4448 23.3262Z" fill="#191924"/>
<path d="M25.6057 15.8776H26.5256L26.7155 15.333H25.404L25.6057 15.8776Z" fill="#191924"/>
<path d="M26.5254 15.8776H26.9645L27.1604 15.333H26.7153L26.5254 15.8776Z" fill="#191924"/>
<path d="M8.92354 15.8776L8.73363 15.333H8.28854L8.48438 15.8776H8.92354Z" fill="#191924"/>
<path d="M25.6053 15.8776L25.4035 15.333H24.9584L25.1602 15.8776H25.6053Z" fill="#191924"/>
<path d="M10.4903 15.333H10.0452L9.84348 15.8776H10.2886L10.4903 15.333Z" fill="#191924"/>
<path d="M27.392 40.3356L20.6741 17.5293H13.0186C15.1847 19.6108 13.7248 23.8405 13.7248 23.8405L8.76947 40.027C8.76947 40.027 7.67752 43.9844 5.30371 44.771V45.3943H12.1699V44.6076C8.33031 42.0844 11.7427 37.6066 11.7427 37.6066H22.5909C22.5909 37.6066 25.4989 43.3974 21.9856 44.6258L21.9738 45.5334H30.9942V44.6318C28.4246 44.0449 27.392 40.3356 27.392 40.3356ZM12.6803 35.2104L17.4695 21.5774L22.4129 35.2104H12.6803Z" fill="#191924"/>
<path d="M25.7654 16.5615C25.2432 16.5615 24.8159 16.9911 24.8159 17.5297C24.8159 18.0622 25.2373 18.4979 25.7654 18.4979C26.2877 18.4979 26.715 18.0682 26.715 17.5297C26.715 16.9972 26.2936 16.5615 25.7654 16.5615ZM25.7654 18.28C25.3619 18.28 25.0296 17.9472 25.0296 17.5297C25.0296 17.1182 25.356 16.7794 25.7654 16.7794C26.169 16.7794 26.5013 17.1122 26.5013 17.5297C26.5013 17.9412 26.1749 18.28 25.7654 18.28Z" fill="#191924"/>
<path d="M26.5012 17.705C26.5012 18.0196 26.246 18.2798 25.9374 18.2798C25.6288 18.2798 25.3737 18.0196 25.3737 17.705C25.3737 17.3903 25.6288 17.1301 25.9374 17.1301C26.246 17.1301 26.5012 17.3843 26.5012 17.705Z" fill="#191924"/>
<path d="M32.9881 24.2227C32.4659 24.2227 32.0386 24.6523 32.0386 25.1908C32.0386 25.7233 32.4599 26.159 32.9881 26.159C33.5103 26.159 33.9376 25.7294 33.9376 25.1908C33.9376 24.6583 33.5163 24.2227 32.9881 24.2227ZM32.9881 25.9411C32.5845 25.9411 32.2522 25.6083 32.2522 25.1908C32.2522 24.7794 32.5786 24.4405 32.9881 24.4405C33.3916 24.4405 33.724 24.7733 33.724 25.1908C33.724 25.6023 33.3976 25.9411 32.9881 25.9411Z" fill="#191924"/>
<path d="M33.7237 25.3659C33.7237 25.6805 33.4686 25.9407 33.16 25.9407C32.8514 25.9407 32.5962 25.6805 32.5962 25.3659C32.5962 25.0512 32.8514 24.791 33.16 24.791C33.4686 24.791 33.7237 25.0452 33.7237 25.3659Z" fill="#191924"/>
<path d="M31.0413 36.4512C30.5191 36.4512 30.0918 36.8808 30.0918 37.4193C30.0918 37.9518 30.5131 38.3875 31.0413 38.3875C31.5636 38.3875 31.9908 37.9579 31.9908 37.4193C31.9849 36.8808 31.5636 36.4512 31.0413 36.4512ZM31.0413 38.1636C30.6378 38.1636 30.3054 37.8308 30.3054 37.4133C30.3054 37.0018 30.6318 36.663 31.0413 36.663C31.4449 36.663 31.7772 36.9958 31.7772 37.4133C31.7713 37.8308 31.4449 38.1636 31.0413 38.1636Z" fill="#191924"/>
<path d="M31.7712 37.5886C31.7712 37.9033 31.5161 38.1635 31.2075 38.1635C30.8989 38.1635 30.6437 37.9033 30.6437 37.5886C30.6437 37.274 30.8989 37.0138 31.2075 37.0138C31.522 37.0138 31.7712 37.274 31.7712 37.5886Z" fill="#191924"/>
<path d="M24.7093 48.0391C24.1871 48.0391 23.7598 48.4687 23.7598 49.0072C23.7598 49.5397 24.1811 49.9754 24.7093 49.9754C25.2315 49.9754 25.6588 49.5458 25.6588 49.0072C25.6588 48.4747 25.2315 48.0391 24.7093 48.0391ZM24.7093 49.7576C24.3057 49.7576 23.9734 49.4247 23.9734 49.0072C23.9734 48.5958 24.2998 48.2569 24.7093 48.2569C25.1128 48.2569 25.4452 48.5897 25.4452 49.0072C25.4452 49.4187 25.1128 49.7576 24.7093 49.7576Z" fill="#191924"/>
<path d="M25.4452 49.1823C25.4452 49.4969 25.19 49.7571 24.8814 49.7571C24.5728 49.7571 24.3177 49.4969 24.3177 49.1823C24.3177 48.8676 24.5728 48.6074 24.8814 48.6074C25.19 48.6074 25.4452 48.8616 25.4452 49.1823Z" fill="#191924"/>
<path d="M9.39239 16.5615C8.87016 16.5615 8.44287 16.9911 8.44287 17.5297C8.44287 18.0622 8.86422 18.4979 9.39239 18.4979C9.91463 18.4979 10.3419 18.0682 10.3419 17.5297C10.3419 16.9972 9.92056 16.5615 9.39239 16.5615ZM9.39239 18.28C8.98885 18.28 8.65651 17.9472 8.65651 17.5297C8.65651 17.1182 8.98291 16.7794 9.39239 16.7794C9.79594 16.7794 10.1283 17.1122 10.1283 17.5297C10.1283 17.9412 9.80187 18.28 9.39239 18.28Z" fill="#191924"/>
<path d="M9.00049 17.705C9.00049 18.0196 9.25567 18.2798 9.56427 18.2798C9.87286 18.2798 10.128 18.0196 10.128 17.705C10.128 17.3903 9.87286 17.1301 9.56427 17.1301C9.25567 17.1301 9.00049 17.3843 9.00049 17.705Z" fill="#191924"/>
<path d="M2.17023 24.2227C1.64799 24.2227 1.2207 24.6523 1.2207 25.1908C1.2207 25.7233 1.64205 26.159 2.17023 26.159C2.69246 26.159 3.11975 25.7294 3.11975 25.1908C3.11975 24.6583 2.6984 24.2227 2.17023 24.2227ZM2.17023 25.9411C1.76668 25.9411 1.43435 25.6083 1.43435 25.1908C1.43435 24.7794 1.76074 24.4405 2.17023 24.4405C2.57377 24.4405 2.9061 24.7733 2.9061 25.1908C2.9061 25.6023 2.57971 25.9411 2.17023 25.9411Z" fill="#191924"/>
<path d="M1.77832 25.3659C1.77832 25.6805 2.0335 25.9407 2.3421 25.9407C2.65069 25.9407 2.90588 25.6805 2.90588 25.3659C2.90588 25.0512 2.65069 24.791 2.3421 24.791C2.0335 24.791 1.77832 25.0452 1.77832 25.3659Z" fill="#191924"/>
<path d="M4.12286 36.4512C3.60062 36.4512 3.17334 36.8808 3.17334 37.4193C3.17334 37.9518 3.59469 38.3875 4.12286 38.3875C4.6451 38.3875 5.07238 37.9579 5.07238 37.4193C5.07238 36.8808 4.6451 36.4512 4.12286 36.4512ZM4.12286 38.1636C3.71932 38.1636 3.38698 37.8308 3.38698 37.4133C3.38698 37.0018 3.71338 36.663 4.12286 36.663C4.52641 36.663 4.85874 36.9958 4.85874 37.4133C4.85874 37.8308 4.53234 38.1636 4.12286 38.1636Z" fill="#191924"/>
<path d="M3.73071 37.5886C3.73071 37.9033 3.9859 38.1635 4.29449 38.1635C4.60309 38.1635 4.85827 37.9033 4.85827 37.5886C4.85827 37.274 4.60309 37.0138 4.29449 37.0138C3.97996 37.0138 3.73071 37.274 3.73071 37.5886Z" fill="#191924"/>
<path d="M10.4549 48.0391C9.93266 48.0391 9.50537 48.4687 9.50537 49.0072C9.50537 49.5397 9.92672 49.9754 10.4549 49.9754C10.9771 49.9754 11.4044 49.5458 11.4044 49.0072C11.3985 48.4747 10.9771 48.0391 10.4549 48.0391ZM10.4549 49.7576C10.0513 49.7576 9.71901 49.4247 9.71901 49.0072C9.71901 48.5958 10.0454 48.2569 10.4549 48.2569C10.8584 48.2569 11.1908 48.5897 11.1908 49.0072C11.1908 49.4187 10.8584 49.7576 10.4549 49.7576Z" fill="#191924"/>
<path d="M10.063 49.1823C10.063 49.4969 10.3182 49.7571 10.6268 49.7571C10.9354 49.7571 11.1906 49.4969 11.1906 49.1823C11.1906 48.8676 10.9354 48.6074 10.6268 48.6074C10.3123 48.6074 10.063 48.8616 10.063 49.1823Z" fill="#191924"/>
<path d="M17.9559 17.5293H17.4277V60.7034H17.9559V17.5293Z" fill="#191924"/>
<path d="M20.7391 60.5037L17.9558 64.2553L17.6947 64.5821L17.4336 64.2553L14.6503 60.5037V17.5293H14.2349V60.5037C14.2349 60.5944 14.2645 60.6852 14.3179 60.7578L17.1012 64.5095C17.1072 64.5155 17.1072 64.5216 17.1131 64.5216L17.3742 64.8483C17.4514 64.9451 17.5701 64.9996 17.6947 64.9996C17.8193 64.9996 17.938 64.9451 18.0151 64.8483L18.2763 64.5216C18.2822 64.5155 18.2822 64.5095 18.2881 64.5095L21.0714 60.7578C21.1248 60.6852 21.1545 60.5944 21.1545 60.5037V20.4459H20.7391V60.5037Z" fill="#191924"/>
<path d="M30.3591 24.8939L30.2463 24.8455C27.5224 23.7563 25.9676 22.3403 25.1367 21.3419C24.3534 20.3919 24.0804 19.6416 24.0566 19.5871L24.021 19.4721C23.8905 19.0425 23.4988 18.7521 23.0597 18.7521H12.3894C11.9443 18.7521 11.5586 19.0425 11.428 19.4721L11.3924 19.5871C11.3687 19.6537 11.0838 20.4282 10.247 21.4145C9.4162 22.3948 7.87323 23.7805 5.2027 24.8455L5.08994 24.8939C4.69827 25.0512 4.44308 25.4445 4.44901 25.8681V25.9952C4.52616 30.3035 5.23237 34.2972 6.54983 37.8612C7.61211 40.7355 9.06607 43.3374 10.882 45.5944C13.6831 49.0798 16.5376 50.7075 17.0777 50.998C17.0836 50.998 17.2735 51.1009 17.2735 51.1009C17.41 51.1735 17.5643 51.2098 17.7186 51.2098C17.8729 51.2098 18.0272 51.1735 18.1637 51.1009C18.1637 51.1009 18.3595 51.004 18.3595 50.998C18.9055 50.7075 21.76 49.0798 24.5551 45.5944C26.3711 43.3374 27.8251 40.7355 28.8873 37.8612C30.2048 34.2972 30.911 30.3035 30.9882 25.9952V25.8681C31.006 25.4385 30.7508 25.0451 30.3591 24.8939ZM17.7245 49.9754C17.7245 49.9754 5.95638 44.2511 5.63592 25.977C11.3805 23.6837 12.52 19.9623 12.52 19.9623H17.7245H22.9291C22.9291 19.9623 24.0685 23.6837 29.8131 25.977C29.4927 44.245 17.7245 49.9754 17.7245 49.9754Z" fill="#191924"/>
<path d="M48.724 32.126C47.9213 32.126 47.296 31.958 46.848 31.622C46.4093 31.286 46.1013 30.8333 45.924 30.264C45.756 29.6947 45.672 29.06 45.672 28.36V24.356C45.672 23.5907 45.756 22.9233 45.924 22.354C46.1013 21.7847 46.4093 21.346 46.848 21.038C47.296 20.7207 47.9213 20.562 48.724 20.562C49.4333 20.562 49.9933 20.6927 50.404 20.954C50.824 21.2153 51.1227 21.5887 51.3 22.074C51.4867 22.5593 51.58 23.1427 51.58 23.824V24.72H50.082V23.922C50.082 23.502 50.0587 23.1333 50.012 22.816C49.9747 22.4893 49.8627 22.2373 49.676 22.06C49.4893 21.8827 49.1767 21.794 48.738 21.794C48.29 21.794 47.9633 21.892 47.758 22.088C47.5527 22.2747 47.4173 22.5453 47.352 22.9C47.296 23.2453 47.268 23.6513 47.268 24.118V28.612C47.268 29.1813 47.3147 29.634 47.408 29.97C47.5013 30.2967 47.6553 30.53 47.87 30.67C48.0847 30.81 48.374 30.88 48.738 30.88C49.1673 30.88 49.4753 30.7867 49.662 30.6C49.8487 30.404 49.9653 30.138 50.012 29.802C50.0587 29.466 50.082 29.074 50.082 28.626V27.786H51.58V28.626C51.58 29.3167 51.496 29.928 51.328 30.46C51.16 30.9827 50.8707 31.3933 50.46 31.692C50.0493 31.9813 49.4707 32.126 48.724 32.126ZM55.1871 32.112C54.5897 32.112 54.1184 31.9907 53.7731 31.748C53.4277 31.5053 53.1804 31.16 53.0311 30.712C52.8911 30.264 52.8211 29.7367 52.8211 29.13V26.778C52.8211 26.1713 52.8911 25.644 53.0311 25.196C53.1804 24.748 53.4277 24.4027 53.7731 24.16C54.1184 23.9173 54.5897 23.796 55.1871 23.796C55.7844 23.796 56.2511 23.9173 56.5871 24.16C56.9324 24.4027 57.1751 24.748 57.3151 25.196C57.4644 25.644 57.5391 26.1713 57.5391 26.778V29.13C57.5391 29.7367 57.4644 30.264 57.3151 30.712C57.1751 31.16 56.9324 31.5053 56.5871 31.748C56.2511 31.9907 55.7844 32.112 55.1871 32.112ZM55.1871 31.006C55.4764 31.006 55.6771 30.922 55.7891 30.754C55.9104 30.586 55.9804 30.3667 55.9991 30.096C56.0271 29.816 56.0411 29.5267 56.0411 29.228V26.694C56.0411 26.386 56.0271 26.0967 55.9991 25.826C55.9804 25.5553 55.9104 25.336 55.7891 25.168C55.6771 24.9907 55.4764 24.902 55.1871 24.902C54.8977 24.902 54.6924 24.9907 54.5711 25.168C54.4497 25.336 54.3751 25.5553 54.3471 25.826C54.3284 26.0967 54.3191 26.386 54.3191 26.694V29.228C54.3191 29.5267 54.3284 29.816 54.3471 30.096C54.3751 30.3667 54.4497 30.586 54.5711 30.754C54.6924 30.922 54.8977 31.006 55.1871 31.006ZM63.4443 32.112C62.903 32.112 62.4783 31.9907 62.1703 31.748C61.8623 31.5053 61.6477 31.16 61.5263 30.712C61.405 30.264 61.3443 29.7367 61.3443 29.13V28.444H60.2243V32H58.9083V23.908H60.2243V27.45H61.3443V26.778C61.3443 26.1713 61.405 25.644 61.5263 25.196C61.6477 24.748 61.8623 24.4027 62.1703 24.16C62.4783 23.9173 62.903 23.796 63.4443 23.796C63.9857 23.796 64.4057 23.9173 64.7043 24.16C65.0123 24.4027 65.227 24.748 65.3483 25.196C65.479 25.644 65.5443 26.1713 65.5443 26.778V29.13C65.5443 29.7367 65.479 30.264 65.3483 30.712C65.227 31.16 65.0123 31.5053 64.7043 31.748C64.4057 31.9907 63.9857 32.112 63.4443 32.112ZM63.4443 31.006C63.7057 31.006 63.8877 30.922 63.9903 30.754C64.1023 30.586 64.1677 30.3667 64.1863 30.096C64.2143 29.816 64.2283 29.5267 64.2283 29.228V26.694C64.2283 26.386 64.2143 26.0967 64.1863 25.826C64.1677 25.5553 64.1023 25.336 63.9903 25.168C63.8877 24.9907 63.7057 24.902 63.4443 24.902C63.183 24.902 62.9963 24.9907 62.8843 25.168C62.7817 25.336 62.7163 25.5553 62.6883 25.826C62.6697 26.0967 62.6603 26.386 62.6603 26.694V29.228C62.6603 29.5267 62.6697 29.816 62.6883 30.096C62.7163 30.3667 62.7817 30.586 62.8843 30.754C62.9963 30.922 63.183 31.006 63.4443 31.006ZM68.8377 32.14C68.4644 32.14 68.1424 32.0887 67.8717 31.986C67.6011 31.8833 67.3771 31.7247 67.1997 31.51C67.0224 31.286 66.8917 31.0107 66.8077 30.684C66.7237 30.3573 66.6817 29.97 66.6817 29.522H67.9557C67.9557 30.0727 68.0351 30.4693 68.1937 30.712C68.3524 30.9547 68.5764 31.076 68.8657 31.076C69.1177 31.076 69.2997 31.0107 69.4117 30.88C69.5237 30.7493 69.5937 30.572 69.6217 30.348C69.6497 30.1147 69.6637 29.858 69.6637 29.578C69.6637 29.2233 69.6124 28.962 69.5097 28.794C69.4164 28.6167 69.2484 28.5 69.0057 28.444C68.7724 28.388 68.4457 28.36 68.0257 28.36V27.296C68.6791 27.296 69.1131 27.198 69.3277 27.002C69.5517 26.806 69.6637 26.484 69.6637 26.036C69.6637 25.6347 69.5797 25.3453 69.4117 25.168C69.2437 24.9907 69.0337 24.902 68.7817 24.902C68.5017 24.902 68.2777 24.9907 68.1097 25.168C67.9417 25.3453 67.8577 25.7 67.8577 26.232H66.5837C66.5837 25.6253 66.6724 25.1447 66.8497 24.79C67.0364 24.4353 67.2977 24.1833 67.6337 24.034C67.9791 23.8753 68.3804 23.796 68.8377 23.796C69.3417 23.796 69.7477 23.8987 70.0557 24.104C70.3731 24.3093 70.6017 24.58 70.7417 24.916C70.8911 25.2427 70.9657 25.588 70.9657 25.952C70.9657 26.4187 70.8911 26.7827 70.7417 27.044C70.6017 27.3053 70.4244 27.492 70.2097 27.604C70.0044 27.716 69.8037 27.7813 69.6077 27.8C69.8131 27.8373 70.0184 27.9073 70.2237 28.01C70.4384 28.1033 70.6157 28.2853 70.7557 28.556C70.9051 28.8173 70.9797 29.228 70.9797 29.788C70.9797 30.5533 70.8024 31.1367 70.4477 31.538C70.0931 31.9393 69.5564 32.14 68.8377 32.14ZM77.609 32.112C77.0116 32.112 76.5403 31.9907 76.195 31.748C75.8496 31.5053 75.6023 31.16 75.453 30.712C75.313 30.264 75.243 29.7367 75.243 29.13V26.778C75.243 26.1713 75.313 25.644 75.453 25.196C75.6023 24.748 75.8496 24.4027 76.195 24.16C76.5403 23.9173 77.0116 23.796 77.609 23.796C78.2063 23.796 78.673 23.9173 79.009 24.16C79.3543 24.4027 79.597 24.748 79.737 25.196C79.8863 25.644 79.961 26.1713 79.961 26.778V29.13C79.961 29.7367 79.8863 30.264 79.737 30.712C79.597 31.16 79.3543 31.5053 79.009 31.748C78.673 31.9907 78.2063 32.112 77.609 32.112ZM77.609 31.006C77.8983 31.006 78.099 30.922 78.211 30.754C78.3323 30.586 78.4023 30.3667 78.421 30.096C78.449 29.816 78.463 29.5267 78.463 29.228V26.694C78.463 26.386 78.449 26.0967 78.421 25.826C78.4023 25.5553 78.3323 25.336 78.211 25.168C78.099 24.9907 77.8983 24.902 77.609 24.902C77.3196 24.902 77.1143 24.9907 76.993 25.168C76.8716 25.336 76.797 25.5553 76.769 25.826C76.7503 26.0967 76.741 26.386 76.741 26.694V29.228C76.741 29.5267 76.7503 29.816 76.769 30.096C76.797 30.3667 76.8716 30.586 76.993 30.754C77.1143 30.922 77.3196 31.006 77.609 31.006ZM84.1162 34.66V31.552H83.9762C83.6682 31.552 83.3509 31.5147 83.0242 31.44C82.6976 31.356 82.3942 31.2067 82.1142 30.992C81.8342 30.7773 81.6056 30.4647 81.4282 30.054C81.2602 29.6433 81.1762 29.1113 81.1762 28.458V27.002C81.1762 26.4793 81.2462 26.0313 81.3862 25.658C81.5356 25.2847 81.7362 24.9813 81.9882 24.748C82.2496 24.5053 82.5436 24.328 82.8702 24.216C83.2062 24.104 83.5609 24.048 83.9342 24.048H84.1162V20.66H85.5022V24.048H85.7402C86.2349 24.048 86.6876 24.1507 87.0982 24.356C87.5089 24.552 87.8356 24.8693 88.0782 25.308C88.3302 25.7373 88.4562 26.302 88.4562 27.002V28.458C88.4562 29.1113 88.3722 29.6433 88.2042 30.054C88.0362 30.4647 87.8122 30.7773 87.5322 30.992C87.2616 31.2067 86.9629 31.356 86.6362 31.44C86.3189 31.5147 86.0062 31.552 85.6982 31.552H85.5022V34.66H84.1162ZM84.0182 30.488H84.1162V25.028H83.9762C83.6869 25.028 83.4349 25.0747 83.2202 25.168C83.0056 25.2613 82.8376 25.434 82.7162 25.686C82.5949 25.938 82.5342 26.302 82.5342 26.778V28.444C82.5342 28.9853 82.5902 29.4053 82.7022 29.704C82.8142 29.9933 82.9822 30.1987 83.2062 30.32C83.4302 30.432 83.7009 30.488 84.0182 30.488ZM85.5022 30.488H85.5862C85.9129 30.488 86.1882 30.432 86.4122 30.32C86.6362 30.1987 86.8042 29.9933 86.9162 29.704C87.0376 29.4053 87.0982 28.9853 87.0982 28.444V26.778C87.0982 26.302 87.0376 25.938 86.9162 25.686C86.7949 25.434 86.6222 25.2613 86.3982 25.168C86.1836 25.0747 85.9269 25.028 85.6282 25.028H85.5022V30.488ZM89.8205 32V23.908H91.0805V29.354L93.5165 23.908H94.6925V32H93.4605V26.512L91.0385 32H89.8205ZM101.049 34.058L100.923 32H96.2189V23.908H97.7169V30.936H99.6629V23.908H101.161V30.936H102.141V34.058H101.049ZM105.254 32.112C104.619 32.112 104.129 31.9907 103.784 31.748C103.438 31.496 103.196 31.132 103.056 30.656C102.925 30.1707 102.86 29.578 102.86 28.878V27.03C102.86 26.3113 102.93 25.714 103.07 25.238C103.21 24.762 103.452 24.4027 103.798 24.16C104.152 23.9173 104.638 23.796 105.254 23.796C105.935 23.796 106.434 23.936 106.752 24.216C107.078 24.496 107.293 24.902 107.396 25.434C107.498 25.9567 107.55 26.5867 107.55 27.324V27.982H104.358V29.606C104.358 29.9327 104.386 30.1987 104.442 30.404C104.507 30.6093 104.605 30.7633 104.736 30.866C104.876 30.9593 105.053 31.006 105.268 31.006C105.492 31.006 105.66 30.9547 105.772 30.852C105.893 30.74 105.972 30.586 106.01 30.39C106.056 30.1847 106.08 29.9467 106.08 29.676V29.186H107.536V29.494C107.536 30.306 107.363 30.9453 107.018 31.412C106.672 31.8787 106.084 32.112 105.254 32.112ZM104.358 27.17H106.08V26.442C106.08 26.106 106.061 25.826 106.024 25.602C105.986 25.3687 105.907 25.196 105.786 25.084C105.674 24.9627 105.492 24.902 105.24 24.902C104.997 24.902 104.81 24.958 104.68 25.07C104.558 25.182 104.474 25.3733 104.428 25.644C104.381 25.9053 104.358 26.2693 104.358 26.736V27.17ZM108.906 34.66V23.908H110.404V24.552C110.582 24.3467 110.796 24.1693 111.048 24.02C111.3 23.8707 111.599 23.796 111.944 23.796C112.364 23.796 112.696 23.908 112.938 24.132C113.19 24.3467 113.377 24.622 113.498 24.958C113.62 25.2847 113.699 25.6207 113.736 25.966C113.774 26.302 113.792 26.5913 113.792 26.834V28.794C113.792 29.3633 113.736 29.9047 113.624 30.418C113.512 30.922 113.307 31.3327 113.008 31.65C112.719 31.958 112.308 32.112 111.776 32.112C111.487 32.112 111.23 32.042 111.006 31.902C110.782 31.7527 110.582 31.5847 110.404 31.398V34.66H108.906ZM111.482 30.936C111.744 30.936 111.93 30.8427 112.042 30.656C112.154 30.46 112.224 30.1987 112.252 29.872C112.28 29.5453 112.294 29.186 112.294 28.794V26.834C112.294 26.498 112.276 26.19 112.238 25.91C112.201 25.6207 112.122 25.392 112 25.224C111.879 25.056 111.688 24.972 111.426 24.972C111.23 24.972 111.044 25.014 110.866 25.098C110.689 25.182 110.535 25.28 110.404 25.392V30.572C110.544 30.6747 110.703 30.7633 110.88 30.838C111.058 30.9033 111.258 30.936 111.482 30.936ZM115.154 32V23.908H116.652V27.254C116.671 27.254 116.694 27.254 116.722 27.254C116.76 27.254 116.792 27.254 116.82 27.254C116.848 27.254 116.872 27.254 116.89 27.254C117.441 27.2633 117.908 27.3053 118.29 27.38C118.682 27.4453 119 27.5667 119.242 27.744C119.485 27.912 119.662 28.15 119.774 28.458C119.886 28.7567 119.942 29.144 119.942 29.62C119.942 30.0587 119.886 30.432 119.774 30.74C119.662 31.0387 119.48 31.2813 119.228 31.468C118.976 31.6547 118.645 31.79 118.234 31.874C117.824 31.958 117.324 32 116.736 32H115.154ZM116.652 31.118H116.736C117.212 31.118 117.586 31.076 117.856 30.992C118.127 30.908 118.318 30.7587 118.43 30.544C118.542 30.32 118.598 30.0073 118.598 29.606C118.598 29.242 118.547 28.9573 118.444 28.752C118.351 28.5373 118.174 28.3833 117.912 28.29C117.66 28.1873 117.292 28.136 116.806 28.136C116.797 28.136 116.774 28.136 116.736 28.136C116.699 28.136 116.671 28.136 116.652 28.136V31.118ZM120.866 32V23.908H122.364V32H120.866ZM45.756 47V38.908H49.018V39.986H47.254V47H45.756ZM49.8165 49.66V38.908H51.3145V39.552C51.4919 39.3467 51.7065 39.1693 51.9585 39.02C52.2105 38.8707 52.5092 38.796 52.8545 38.796C53.2745 38.796 53.6059 38.908 53.8485 39.132C54.1005 39.3467 54.2872 39.622 54.4085 39.958C54.5299 40.2847 54.6092 40.6207 54.6465 40.966C54.6839 41.302 54.7025 41.5913 54.7025 41.834V43.794C54.7025 44.3633 54.6465 44.9047 54.5345 45.418C54.4225 45.922 54.2172 46.3327 53.9185 46.65C53.6292 46.958 53.2185 47.112 52.6865 47.112C52.3972 47.112 52.1405 47.042 51.9165 46.902C51.6925 46.7527 51.4919 46.5847 51.3145 46.398V49.66H49.8165ZM52.3925 45.936C52.6539 45.936 52.8405 45.8427 52.9525 45.656C53.0645 45.46 53.1345 45.1987 53.1625 44.872C53.1905 44.5453 53.2045 44.186 53.2045 43.794V41.834C53.2045 41.498 53.1859 41.19 53.1485 40.91C53.1112 40.6207 53.0319 40.392 52.9105 40.224C52.7892 40.056 52.5979 39.972 52.3365 39.972C52.1405 39.972 51.9539 40.014 51.7765 40.098C51.5992 40.182 51.4452 40.28 51.3145 40.392V45.572C51.4545 45.6747 51.6132 45.7633 51.7905 45.838C51.9679 45.9033 52.1685 45.936 52.3925 45.936ZM55.9386 49.03V47.882C56.3026 47.882 56.5919 47.8633 56.8066 47.826C57.0213 47.798 57.1753 47.7373 57.2686 47.644C57.3619 47.56 57.4086 47.4387 57.4086 47.28C57.4086 47.196 57.3759 47.0093 57.3106 46.72C57.2453 46.4307 57.1753 46.1227 57.1006 45.796L55.4766 38.908H56.9886L58.0806 44.956L59.1306 38.908H60.6426L58.7106 47.448C58.6266 47.84 58.4726 48.148 58.2486 48.372C58.0246 48.6053 57.7353 48.7733 57.3806 48.876C57.0353 48.9787 56.6153 49.03 56.1206 49.03H55.9386ZM61.547 47V38.908H66.251V47H64.753V40.042H63.045V47H61.547ZM67.7677 47V38.908H72.4717V47H70.9737V40.042H69.2657V47H67.7677ZM73.9884 47V38.908H75.4864V42.254C75.5051 42.254 75.5284 42.254 75.5564 42.254C75.5938 42.254 75.6264 42.254 75.6544 42.254C75.6824 42.254 75.7058 42.254 75.7244 42.254C76.2751 42.2633 76.7418 42.3053 77.1244 42.38C77.5164 42.4453 77.8338 42.5667 78.0764 42.744C78.3191 42.912 78.4964 43.15 78.6084 43.458C78.7204 43.7567 78.7764 44.144 78.7764 44.62C78.7764 45.0587 78.7204 45.432 78.6084 45.74C78.4964 46.0387 78.3144 46.2813 78.0624 46.468C77.8104 46.6547 77.4791 46.79 77.0684 46.874C76.6578 46.958 76.1584 47 75.5704 47H73.9884ZM75.4864 46.118H75.5704C76.0464 46.118 76.4198 46.076 76.6904 45.992C76.9611 45.908 77.1524 45.7587 77.2644 45.544C77.3764 45.32 77.4324 45.0073 77.4324 44.606C77.4324 44.242 77.3811 43.9573 77.2784 43.752C77.1851 43.5373 77.0078 43.3833 76.7464 43.29C76.4944 43.1873 76.1258 43.136 75.6404 43.136C75.6311 43.136 75.6078 43.136 75.5704 43.136C75.5331 43.136 75.5051 43.136 75.4864 43.136V46.118ZM79.7004 47V38.908H81.1984V47H79.7004ZM85.4203 47L87.8283 35.66H89.3543L91.7763 47H90.2783L89.7603 44.144H87.4503L86.9043 47H85.4203ZM87.6603 43.01H89.5503L88.5983 37.9L87.6603 43.01ZM92.2829 47.07V45.936C92.5629 45.936 92.7823 45.88 92.9409 45.768C93.1089 45.656 93.2349 45.4693 93.3189 45.208C93.4123 44.9373 93.4823 44.578 93.5289 44.13C93.5756 43.6727 93.6176 43.1033 93.6549 42.422L93.8369 38.908H98.0789V47H96.5809V40.042H95.1529L95.0269 42.422C94.9803 43.346 94.9103 44.1113 94.8169 44.718C94.7329 45.3247 94.5976 45.8007 94.4109 46.146C94.2243 46.482 93.9723 46.72 93.6549 46.86C93.3469 47 92.9456 47.07 92.4509 47.07H92.2829ZM99.5958 47V38.908H101.094V42.254C101.113 42.254 101.136 42.254 101.164 42.254C101.201 42.254 101.234 42.254 101.262 42.254C101.29 42.254 101.313 42.254 101.332 42.254C101.883 42.2633 102.349 42.3053 102.732 42.38C103.124 42.4453 103.441 42.5667 103.684 42.744C103.927 42.912 104.104 43.15 104.216 43.458C104.328 43.7567 104.384 44.144 104.384 44.62C104.384 45.0587 104.328 45.432 104.216 45.74C104.104 46.0387 103.922 46.2813 103.67 46.468C103.418 46.6547 103.087 46.79 102.676 46.874C102.265 46.958 101.766 47 101.178 47H99.5958ZM101.094 46.118H101.178C101.654 46.118 102.027 46.076 102.298 45.992C102.569 45.908 102.76 45.7587 102.872 45.544C102.984 45.32 103.04 45.0073 103.04 44.606C103.04 44.242 102.989 43.9573 102.886 43.752C102.793 43.5373 102.615 43.3833 102.354 43.29C102.102 43.1873 101.733 43.136 101.248 43.136C101.239 43.136 101.215 43.136 101.178 43.136C101.141 43.136 101.113 43.136 101.094 43.136V46.118ZM108.192 49.66V46.552H108.052C107.744 46.552 107.427 46.5147 107.1 46.44C106.774 46.356 106.47 46.2067 106.19 45.992C105.91 45.7773 105.682 45.4647 105.504 45.054C105.336 44.6433 105.252 44.1113 105.252 43.458V42.002C105.252 41.4793 105.322 41.0313 105.462 40.658C105.612 40.2847 105.812 39.9813 106.064 39.748C106.326 39.5053 106.62 39.328 106.946 39.216C107.282 39.104 107.637 39.048 108.01 39.048H108.192V35.66H109.578V39.048H109.816C110.311 39.048 110.764 39.1507 111.174 39.356C111.585 39.552 111.912 39.8693 112.154 40.308C112.406 40.7373 112.532 41.302 112.532 42.002V43.458C112.532 44.1113 112.448 44.6433 112.28 45.054C112.112 45.4647 111.888 45.7773 111.608 45.992C111.338 46.2067 111.039 46.356 110.712 46.44C110.395 46.5147 110.082 46.552 109.774 46.552H109.578V49.66H108.192ZM108.094 45.488H108.192V40.028H108.052C107.763 40.028 107.511 40.0747 107.296 40.168C107.082 40.2613 106.914 40.434 106.792 40.686C106.671 40.938 106.61 41.302 106.61 41.778V43.444C106.61 43.9853 106.666 44.4053 106.778 44.704C106.89 44.9933 107.058 45.1987 107.282 45.32C107.506 45.432 107.777 45.488 108.094 45.488ZM109.578 45.488H109.662C109.989 45.488 110.264 45.432 110.488 45.32C110.712 45.1987 110.88 44.9933 110.992 44.704C111.114 44.4053 111.174 43.9853 111.174 43.444V41.778C111.174 41.302 111.114 40.938 110.992 40.686C110.871 40.434 110.698 40.2613 110.474 40.168C110.26 40.0747 110.003 40.028 109.704 40.028H109.578V45.488ZM115.353 47.112C115.035 47.112 114.755 47.0233 114.513 46.846C114.27 46.6593 114.079 46.426 113.939 46.146C113.799 45.8567 113.729 45.5533 113.729 45.236C113.729 44.732 113.813 44.3073 113.981 43.962C114.149 43.6167 114.377 43.3273 114.667 43.094C114.965 42.8513 115.306 42.6413 115.689 42.464C116.081 42.2867 116.491 42.114 116.921 41.946V41.372C116.921 41.0453 116.902 40.7747 116.865 40.56C116.827 40.3453 116.748 40.1867 116.627 40.084C116.515 39.972 116.342 39.916 116.109 39.916C115.903 39.916 115.735 39.9627 115.605 40.056C115.483 40.1493 115.395 40.2847 115.339 40.462C115.283 40.63 115.255 40.8307 115.255 41.064V41.47L113.771 41.414C113.789 40.518 113.995 39.86 114.387 39.44C114.779 39.0107 115.385 38.796 116.207 38.796C117.009 38.796 117.579 39.0153 117.915 39.454C118.251 39.8927 118.419 40.5273 118.419 41.358V45.054C118.419 45.306 118.423 45.5487 118.433 45.782C118.451 46.0153 118.47 46.2347 118.489 46.44C118.517 46.636 118.54 46.8227 118.559 47H117.187C117.159 46.8507 117.121 46.664 117.075 46.44C117.037 46.2067 117.009 45.9967 116.991 45.81C116.897 46.1273 116.715 46.426 116.445 46.706C116.183 46.9767 115.819 47.112 115.353 47.112ZM115.941 45.824C116.09 45.824 116.23 45.782 116.361 45.698C116.491 45.614 116.608 45.5207 116.711 45.418C116.813 45.306 116.883 45.2173 116.921 45.152V42.856C116.687 42.9867 116.468 43.1173 116.263 43.248C116.057 43.3787 115.875 43.5187 115.717 43.668C115.567 43.808 115.446 43.9713 115.353 44.158C115.269 44.3353 115.227 44.5407 115.227 44.774C115.227 45.1007 115.287 45.3573 115.409 45.544C115.53 45.7307 115.707 45.824 115.941 45.824Z" fill="#191924"/>
</svg>
