<svg width="47" height="13" viewBox="0 0 47 13" fill="none" xmlns="http://www.w3.org/2000/svg">
<path d="M0 12.7912V0.628784H1.39584L6.74089 9.82008H5.9919L11.2689 0.628784H12.6647L12.6817 12.7912H11.0476L11.0305 3.25239H11.4221L6.72386 11.3143H5.94083L1.20859 3.25239H1.63415V12.7912H0Z" fill="#191924"/>
<path d="M20.0367 12.8954C19.0721 12.8954 18.221 12.6927 17.4834 12.2873C16.7571 11.8819 16.1897 11.3259 15.7811 10.6193C15.3839 9.91275 15.1853 9.10192 15.1853 8.18684C15.1853 7.27177 15.3783 6.46094 15.7641 5.75436C16.1613 5.04779 16.7003 4.49758 17.3812 4.10375C18.0735 3.69834 18.8508 3.49563 19.7133 3.49563C20.5871 3.49563 21.3588 3.69255 22.0284 4.08638C22.6979 4.48021 23.2199 5.0362 23.5944 5.75436C23.9803 6.46094 24.1732 7.28914 24.1732 8.23897C24.1732 8.30847 24.1675 8.38955 24.1562 8.48222C24.1562 8.57488 24.1505 8.66176 24.1391 8.74284H16.462V7.54397H23.288L22.6241 7.96097C22.6355 7.37023 22.5163 6.84319 22.2667 6.37986C22.017 5.91653 21.6709 5.55745 21.2283 5.30262C20.7971 5.0362 20.2921 4.903 19.7133 4.903C19.1459 4.903 18.6409 5.0362 18.1983 5.30262C17.7557 5.55745 17.4096 5.92232 17.1599 6.39723C16.9103 6.86056 16.7855 7.39339 16.7855 7.99572V8.27372C16.7855 8.88763 16.9216 9.43783 17.194 9.92433C17.4777 10.3992 17.8692 10.7699 18.3685 11.0363C18.8679 11.3027 19.441 11.4359 20.0878 11.4359C20.6212 11.4359 21.1035 11.3433 21.5347 11.1579C21.9773 10.9726 22.3631 10.6946 22.6922 10.324L23.5944 11.4012C23.1859 11.8877 22.6752 12.2584 22.0624 12.5132C21.461 12.768 20.7857 12.8954 20.0367 12.8954Z" fill="#191924"/>
<path d="M31.2597 3.49563C31.9974 3.49563 32.6442 3.64042 33.2003 3.93001C33.7677 4.21959 34.2103 4.65975 34.528 5.25049C34.8458 5.84124 35.0047 6.58836 35.0047 7.49185V12.7912H33.3705V7.68297C33.3705 6.79106 33.1549 6.11924 32.7236 5.66749C32.3038 5.21574 31.708 4.98987 30.9363 4.98987C30.3575 4.98987 29.8525 5.1057 29.4213 5.33737C28.9901 5.56903 28.6553 5.91074 28.417 6.36249C28.19 6.81423 28.0765 7.37602 28.0765 8.04785V12.7912H26.4424V3.58251H28.0084V6.06711L27.7531 5.40687C28.0481 4.80454 28.5021 4.33542 29.1149 3.99951C29.7277 3.66359 30.4426 3.49563 31.2597 3.49563Z" fill="#191924"/>
<path d="M41.8249 12.8954C41.0532 12.8954 40.3723 12.7506 39.7822 12.4611C39.2035 12.1715 38.7495 11.7313 38.4204 11.1406C38.1027 10.5382 37.9438 9.78533 37.9438 8.88184V3.58251H39.578V8.69071C39.578 9.59421 39.7879 10.2718 40.2078 10.7236C40.639 11.1753 41.2405 11.4012 42.0122 11.4012C42.5796 11.4012 43.0732 11.2854 43.4931 11.0537C43.913 10.8104 44.2364 10.4629 44.4634 10.0112C44.6904 9.54787 44.8039 8.99188 44.8039 8.34322V3.58251H46.438V12.7912H44.889V10.3066L45.1443 10.9668C44.8492 11.5807 44.4067 12.0556 43.8166 12.3916C43.2264 12.7275 42.5626 12.8954 41.8249 12.8954Z" fill="#191924"/>
</svg>
