<svg width="47" height="13" viewBox="0 0 47 13" fill="none" xmlns="http://www.w3.org/2000/svg">
<path d="M-6.10352e-05 12.7912V0.628784H1.39578L6.74082 9.82008H5.99184L11.2688 0.628784H12.6646L12.6817 12.7912H11.0475L11.0305 3.25239H11.422L6.7238 11.3143H5.94077L1.20853 3.25239H1.63409V12.7912H-6.10352e-05Z" fill="white"/>
<path d="M20.0367 12.8954C19.0721 12.8954 18.221 12.6927 17.4833 12.2873C16.757 11.8819 16.1896 11.3259 15.7811 10.6193C15.3839 9.91275 15.1853 9.10192 15.1853 8.18684C15.1853 7.27177 15.3782 6.46094 15.764 5.75436C16.1612 5.04779 16.7003 4.49758 17.3812 4.10375C18.0734 3.69834 18.8508 3.49563 19.7133 3.49563C20.5871 3.49563 21.3588 3.69255 22.0283 4.08638C22.6979 4.48021 23.2199 5.0362 23.5944 5.75436C23.9802 6.46094 24.1731 7.28914 24.1731 8.23897C24.1731 8.30847 24.1675 8.38955 24.1561 8.48222C24.1561 8.57488 24.1504 8.66176 24.1391 8.74284H16.462V7.54397H23.288L22.6241 7.96097C22.6354 7.37023 22.5163 6.84319 22.2666 6.37986C22.017 5.91653 21.6708 5.55745 21.2282 5.30262C20.797 5.0362 20.292 4.903 19.7133 4.903C19.1458 4.903 18.6408 5.0362 18.1983 5.30262C17.7557 5.55745 17.4095 5.92232 17.1599 6.39723C16.9102 6.86056 16.7854 7.39339 16.7854 7.99572V8.27372C16.7854 8.88763 16.9216 9.43783 17.1939 9.92433C17.4776 10.3992 17.8692 10.7699 18.3685 11.0363C18.8678 11.3027 19.4409 11.4359 20.0877 11.4359C20.6211 11.4359 21.1034 11.3433 21.5347 11.1579C21.9772 10.9726 22.3631 10.6946 22.6922 10.324L23.5944 11.4012C23.1858 11.8877 22.6752 12.2584 22.0623 12.5132C21.4609 12.768 20.7857 12.8954 20.0367 12.8954Z" fill="white"/>
<path d="M31.2597 3.49563C31.9973 3.49563 32.6441 3.64042 33.2002 3.93001C33.7676 4.21959 34.2102 4.65975 34.528 5.25049C34.8457 5.84124 35.0046 6.58836 35.0046 7.49185V12.7912H33.3704V7.68297C33.3704 6.79106 33.1548 6.11924 32.7236 5.66749C32.3037 5.21574 31.7079 4.98987 30.9362 4.98987C30.3575 4.98987 29.8525 5.1057 29.4212 5.33737C28.99 5.56903 28.6552 5.91074 28.4169 6.36249C28.1899 6.81423 28.0765 7.37602 28.0765 8.04785V12.7912H26.4423V3.58251H28.0084V6.06711L27.753 5.40687C28.0481 4.80454 28.502 4.33542 29.1148 3.99951C29.7276 3.66359 30.4426 3.49563 31.2597 3.49563Z" fill="white"/>
<path d="M41.8249 12.8954C41.0532 12.8954 40.3723 12.7506 39.7822 12.4611C39.2034 12.1715 38.7495 11.7313 38.4204 11.1406C38.1026 10.5382 37.9438 9.78533 37.9438 8.88184V3.58251H39.5779V8.69071C39.5779 9.59421 39.7878 10.2718 40.2077 10.7236C40.639 11.1753 41.2404 11.4012 42.0121 11.4012C42.5795 11.4012 43.0732 11.2854 43.4931 11.0537C43.913 10.8104 44.2364 10.4629 44.4633 10.0112C44.6903 9.54787 44.8038 8.99188 44.8038 8.34322V3.58251H46.4379V12.7912H44.8889V10.3066L45.1442 10.9668C44.8492 11.5807 44.4066 12.0556 43.8165 12.3916C43.2264 12.7275 42.5625 12.8954 41.8249 12.8954Z" fill="white"/>
</svg>
