<svg width="17" height="28" viewBox="0 0 17 28" fill="none" xmlns="http://www.w3.org/2000/svg">
<path d="M3.36866 0.55409L16.5691 12.9657C16.7258 13.1135 16.8365 13.2735 16.9013 13.4459C16.9671 13.6183 17 13.803 17 14C17 14.197 16.9671 14.3817 16.9013 14.5541C16.8365 14.7265 16.7258 14.8865 16.5691 15.0343L3.36866 27.4828C3.00307 27.8276 2.54608 28 1.99769 28C1.44931 28 0.979263 27.8153 0.587557 27.4459C0.195852 27.0765 0 26.6456 0 26.153C0 25.6605 0.195852 25.2296 0.587557 24.8602L12.1037 14L0.587557 3.13984C0.221966 2.79508 0.0391693 2.37052 0.0391693 1.86618C0.0391693 1.36085 0.235022 0.923485 0.626728 0.55409C1.01843 0.184698 1.47542 1.90735e-06 1.99769 1.90735e-06C2.51997 1.90735e-06 2.97696 0.184698 3.36866 0.55409Z" fill="white"/>
</svg>
