<svg width="17" height="28" viewBox="0 0 17 28" fill="none" xmlns="http://www.w3.org/2000/svg">
<path d="M13.6313 27.4459L0.430876 15.0343C0.274194 14.8865 0.163472 14.7265 0.0987097 14.5541C0.0329032 14.3817 0 14.197 0 14C0 13.803 0.0329032 13.6183 0.0987097 13.4459C0.163472 13.2735 0.274194 13.1135 0.430876 12.9657L13.6313 0.51715C13.9969 0.172383 14.4539 0 15.0023 0C15.5507 0 16.0207 0.184697 16.4124 0.55409C16.8041 0.923483 17 1.35444 17 1.84697C17 2.33949 16.8041 2.77045 16.4124 3.13984L4.89631 14L16.4124 24.8602C16.778 25.2049 16.9608 25.6295 16.9608 26.1338C16.9608 26.6392 16.765 27.0765 16.3733 27.4459C15.9816 27.8153 15.5246 28 15.0023 28C14.48 28 14.023 27.8153 13.6313 27.4459Z" fill="white"/>
</svg>
